<svg width="44" height="44" viewBox="0 0 44 44" fill="none" xmlns="http://www.w3.org/2000/svg">
<rect width="44" height="44" rx="22" fill="#F9FAFB"/>
<mask id="mask0_1308_21521" style="mask-type:alpha" maskUnits="userSpaceOnUse" x="10" y="10" width="24" height="24">
<rect x="10" y="10" width="24" height="24" fill="#D9D9D9"/>
</mask>
<g mask="url(#mask0_1308_21521)">
<path d="M18.8731 27.1269C18.7282 26.982 18.6558 26.8064 18.6558 26.6C18.6558 26.3936 18.7282 26.218 18.8731 26.0731L22.9462 22L18.8731 17.9269C18.7282 17.782 18.6558 17.6064 18.6558 17.4C18.6558 17.1936 18.7282 17.018 18.8731 16.8731C19.018 16.7282 19.1936 16.6558 19.4 16.6558C19.6064 16.6558 19.782 16.7282 19.9269 16.8731L24.4211 21.3673C24.5147 21.4609 24.5807 21.5596 24.6192 21.6635C24.6577 21.7673 24.6769 21.8795 24.6769 22C24.6769 22.1205 24.6577 22.2327 24.6192 22.3365C24.5807 22.4404 24.5147 22.5391 24.4211 22.6327L19.9269 27.1269C19.782 27.2718 19.6064 27.3442 19.4 27.3442C19.1936 27.3442 19.018 27.2718 18.8731 27.1269Z" fill="#111827"/>
</g>
</svg>
