<svg width="44" height="44" viewBox="0 0 44 44" fill="none" xmlns="http://www.w3.org/2000/svg">
<rect width="44" height="44" rx="22" fill="#F9FAFB"/>
<mask id="mask0_1308_21511" style="mask-type:alpha" maskUnits="userSpaceOnUse" x="10" y="10" width="24" height="24">
<rect x="10" y="10" width="24" height="24" fill="#D9D9D9"/>
</mask>
<g mask="url(#mask0_1308_21511)">
<path d="M23.4731 27.1269L18.9789 22.6327C18.8853 22.5391 18.8193 22.4388 18.7808 22.3317C18.7424 22.2247 18.7231 22.1141 18.7231 22C18.7231 21.8795 18.7424 21.7673 18.7808 21.6635C18.8193 21.5596 18.8853 21.4609 18.9789 21.3673L23.4731 16.8731C23.618 16.7282 23.7936 16.6558 24 16.6558C24.2064 16.6558 24.3821 16.7282 24.5269 16.8731C24.6718 17.018 24.7443 17.1936 24.7443 17.4C24.7443 17.6064 24.6718 17.782 24.5269 17.9269L20.4539 22L24.5269 26.0731C24.6718 26.218 24.7443 26.3936 24.7443 26.6C24.7443 26.8064 24.6718 26.982 24.5269 27.1269C24.3821 27.2718 24.2064 27.3442 24 27.3442C23.7936 27.3442 23.618 27.2718 23.4731 27.1269Z" fill="#111827"/>
</g>
</svg>
