<svg width="24" height="30" viewBox="0 0 24 30" fill="none" xmlns="http://www.w3.org/2000/svg">
<path fill-rule="evenodd" clip-rule="evenodd" d="M14.9321 16.7935V18.7321C14.9321 19.5398 15.9201 20.7073 16.8356 21.1553C17.2644 21.3655 17.8342 21.3655 18.2631 21.1553C19.1785 20.7073 20.1665 19.5398 20.1665 18.7321V16.7935H19.9598C19.4828 16.7935 19.0253 16.6004 18.688 16.257L18.2631 15.8242L17.8381 16.257C17.501 16.6006 17.0434 16.7935 16.5664 16.7935H14.9321Z" fill="#F9FAFB"/>
<path d="M17.6899 11.9944C19.9047 11.9947 21.6841 13.7784 21.6841 15.9924V19.4905L20.5318 19.5016C20.6977 19.1868 20.8073 18.8558 20.8073 18.5055V16.5055C20.8073 16.2288 20.5824 16.0045 20.3053 16.0055H20.0925C19.7237 16.0055 19.3709 15.8599 19.1101 15.5991L18.6609 15.1559C18.5532 15.0452 18.4005 14.9903 18.2468 15.0073C18.1346 15.0223 18.0307 15.0744 17.952 15.1559L17.5087 15.5991C17.2479 15.8599 16.895 16.0055 16.5262 16.0055H14.8075C14.5305 16.0045 14.3055 16.2285 14.3055 16.5055V18.5055C14.3055 18.8559 14.4148 19.1868 14.5811 19.5016L13.6904 19.4905V15.9924C13.6911 13.7784 15.4752 11.994 17.6899 11.9944Z" fill="#F9FAFB"/>
<path fill-rule="evenodd" clip-rule="evenodd" d="M8.49209 21.2998L12.0916 22.7957L10.5371 29.2395H3.43554V26.7395L2.64842 29.2335L0.0625 29.2435L1.2207 23.8197C1.3167 23.3728 1.62647 22.9987 2.04883 22.8236L5.4004 21.4369L5.67177 21.5911C6.4581 22.0449 7.43386 22.0146 8.18935 21.5111L8.49209 21.2998ZM16.3397 22.3115L16.5098 22.4521C17.1776 23.0116 18.1587 23.0236 18.834 22.4752C18.834 22.4752 18.834 22.4752 18.834 22.4652L19.0332 22.3109L22.5117 23.6177L23.9374 29.2391L21.7168 29.2491L20.9374 27.2401V29.2401H14.4374V27.2401L13.6875 29.2572L11.4374 29.2383L12.8632 23.6173L16.3397 22.3115Z" fill="#F9FAFB"/>
<path fill-rule="evenodd" clip-rule="evenodd" d="M7.66403 13.6643L7.22042 14.1113C6.86893 14.4655 6.17731 14.1643 5.68049 14.1643L4.42527 15.1641C4.15466 14.785 3.74583 14.607 3.3754 14.7072C2.84687 14.8501 2.74134 15.4898 2.91781 16.1559C3.09507 16.8236 3.49668 17.1766 4.02631 17.5187C4.2047 17.4687 4.14045 17.6166 4.19298 17.6622C4.19298 18.4952 5.2226 19.6993 6.17652 20.1614C6.62345 20.378 7.21207 20.3666 7.66418 20.1614C8.40799 19.8235 9.53826 18.6011 9.64767 17.5199C9.65527 17.4429 9.75048 17.191 9.85706 17.1118C10.077 17.1878 10.6492 16.8516 10.8262 16.1849C11.0038 15.518 11.0276 14.8393 10.4981 14.6965C10.1251 14.5975 9.714 14.7786 9.44437 15.1632H9.43303C8.93618 15.1634 8.45962 14.4647 8.10808 14.1108L7.66403 13.6643Z" fill="#F9FAFB"/>
<path d="M10.1132 13.8857C9.6457 14.3274 9.30195 14.3145 9.30195 14.3145C8.82373 13.8536 8.47359 13.4727 8.01948 13.0009C7.92726 12.9079 7.80254 12.8556 7.67177 12.8541C7.53608 12.8541 7.40569 12.9062 7.31044 13.0027L6.86711 13.4519C6.85577 13.4629 6.78585 13.4939 6.55643 13.4669C6.32701 13.4409 6.02703 13.3575 5.67754 13.3575C5.56529 13.3583 5.45681 13.3966 5.36913 13.4669L4.26951 14.338C4.08129 14.2159 3.89761 14.0689 3.70508 13.9785C3.92353 12.0178 4.92337 10.5178 6.92338 10.5178C8.92336 10.5178 9.92338 12.0178 10.1132 13.8875V13.8857Z" fill="#F9FAFB"/>
<path d="M16.1068 3.74347C15.8879 3.74347 15.6712 3.78666 15.4689 3.87042C15.2667 3.95418 15.083 4.07686 14.9282 4.23163C14.7735 4.3864 14.6507 4.57019 14.567 4.7724C14.4832 4.97461 14.4401 5.19135 14.4401 5.41022V8.74347H17.7734C18.2154 8.74348 18.6394 8.56798 18.9519 8.25543C19.2645 7.94288 19.4401 7.51886 19.4401 7.07684C19.4401 6.85797 19.397 6.64124 19.3132 6.43903C19.2295 6.23681 19.1067 6.05314 18.952 5.89838C18.7972 5.74361 18.6134 5.62081 18.4112 5.53705C18.209 5.45329 17.9923 5.41021 17.7734 5.41022C17.7734 5.19135 17.7303 4.97461 17.6466 4.7724C17.5628 4.57019 17.44 4.3864 17.2853 4.23163C17.1305 4.07686 16.9468 3.95418 16.7446 3.87042C16.5424 3.78666 16.3256 3.74347 16.1068 3.74347ZM9.75084 0.74353C9.96971 0.743531 10.1864 0.786601 10.3886 0.870361C10.5909 0.954122 10.7746 1.07692 10.9294 1.23169C11.0841 1.38646 11.2069 1.57019 11.2906 1.7724C11.3744 1.97461 11.4175 2.19135 11.4175 2.41022V5.74347H8.08418C7.64216 5.74348 7.21824 5.56798 6.90567 5.25543C6.5931 4.94288 6.4175 4.51886 6.41748 4.07684C6.41748 3.85797 6.46058 3.64124 6.54434 3.43903C6.6281 3.23681 6.75087 3.05314 6.90563 2.89838C7.0604 2.74361 7.24414 2.62081 7.44635 2.53705C7.64857 2.45329 7.8653 2.41021 8.08418 2.41022C8.08417 2.19135 8.12728 1.97461 8.21103 1.7724C8.29479 1.57019 8.41755 1.38646 8.57232 1.23169C8.72708 1.07692 8.91081 0.954122 9.11302 0.870361C9.31524 0.786601 9.53196 0.743531 9.75084 0.74353Z" fill="#F9FAFB"/>
</svg>
