<svg width="32" height="32" viewBox="0 0 32 32" fill="none" xmlns="http://www.w3.org/2000/svg">
<path d="M28.6668 2.66671H27.3335V5.33337H26.0002V1.33337H24.6668V5.33337H23.3335V1.33337H22.0002V2.66671H11.3335V5.33337H10.0002V1.33337H8.66683V5.33337H7.3335V1.33337H6.00016V2.66671H3.3335C2.2335 2.66671 1.3335 3.56671 1.3335 4.66671V28.6667C1.3335 29.7667 2.2335 30.6667 3.3335 30.6667H28.6668C29.7668 30.6667 30.6668 29.7667 30.6668 28.6667V4.66671C30.6668 3.56671 29.7668 2.66671 28.6668 2.66671ZM24.0002 11.3334H25.3335V12.6667H24.0002V11.3334ZM22.0002 9.33337H23.3335V10.6667H22.0002V9.33337ZM12.9602 7.78291L13.8022 6.33931C13.9259 6.12737 14.134 6.00004 14.357 6.00004H17.6434C17.8663 6.00004 18.0744 6.12737 18.198 6.33931L19.0401 7.78291C19.212 8.07744 19.1836 8.46844 18.9718 8.72664L17.754 10.2112C17.192 10.0733 16.6046 10 16.0001 10C15.396 10 14.8104 10.0766 14.2488 10.2143L13.0284 8.72664C12.8166 8.46844 12.7884 8.07744 12.9602 7.78291ZM16.0002 11.3334C19.3139 11.3334 22.0002 14.0196 22.0002 17.3334C22.0002 18.3735 21.728 19.3471 21.2623 20.1999C23.831 21.1876 24.6668 22.6667 24.6668 22.6667H7.3335C7.3335 22.6667 8.16876 21.1884 10.7358 20.2008C10.2702 19.348 10.0002 18.3734 10.0002 17.3334C10.0002 14.0196 12.6864 11.3334 16.0002 11.3334ZM8.66683 9.33337H10.0002V10.6667H8.66683V9.33337ZM8.00016 11.3334V12.6667H6.66683V11.3334H8.00016ZM6.00016 8.66671H7.3335V10H6.00016V8.66671ZM25.986 25.1644L25.6939 26.8859C25.5848 27.5288 25.0183 28 24.3546 28H7.64576C6.98196 28 6.41556 27.5288 6.30643 26.8859L6.0143 25.1644C5.91083 24.5549 6.3895 24 7.01876 24H24.9816C25.6108 24 26.0895 24.5549 25.986 25.1644ZM26.0002 10H24.6668V8.66671H26.0002V10Z" fill="#F9FAFB"/>
<path d="M16 19.3334C17.2523 19.3334 18.3342 19.4475 19.2707 19.6315C19.7287 18.9809 20 18.1894 20 17.3334C20 15.1242 18.2091 13.3334 16 13.3334C13.7909 13.3334 12 15.1242 12 17.3334C12 18.1894 12.2713 18.9809 12.7293 19.6315C13.6658 19.4475 14.7477 19.3334 16 19.3334Z" fill="#F9FAFB"/>
</svg>
