<svg width="32" height="32" viewBox="0 0 32 32" fill="none" xmlns="http://www.w3.org/2000/svg">
<path d="M9.4375 5.6875C9.4375 5.515 9.2975 5.375 9.125 5.375H5.375C5.2025 5.375 5.0625 5.515 5.0625 5.6875V7.25H9.4375V5.6875ZM27.5625 17.875C27.5625 18.7565 27.3955 19.6 27.092 20.375H30.6875V15.375H27.092C27.3955 16.15 27.5625 16.9935 27.5625 17.875ZM20.6875 21.0235L23.594 18.117C24.198 17.513 24.198 16.5295 23.594 15.9255C22.99 15.3215 22.0065 15.3215 21.4025 15.9255L20.9085 16.4195C20.7865 16.5415 20.5885 16.5415 20.4665 16.4195L19.9725 15.9255C19.6705 15.6235 19.2735 15.4725 18.8765 15.4725C18.4795 15.4725 18.083 15.6235 17.7805 15.9255C17.488 16.218 17.3265 16.6075 17.3265 17.0215C17.3265 17.4355 17.4875 17.8245 17.7805 18.1175L20.6875 21.0235Z" fill="#F9FAFB"/>
<path d="M27.5 7.875H24.6815L23.803 4.3615C23.7685 4.2225 23.6435 4.125 23.5 4.125H14.125C13.9815 4.125 13.8565 4.2225 13.822 4.3615L12.9435 7.875H4.5C2.7425 7.875 1.3125 9.305 1.3125 11.0625V14.75H14.5645C15.7045 12.5255 18.021 11 20.6875 11C23.354 11 25.6705 12.5255 26.8105 14.75H30.6875V11.0625C30.6875 9.305 29.2575 7.875 27.5 7.875ZM9.75 11H7.25C7.0775 11 6.9375 10.86 6.9375 10.6875C6.9375 10.515 7.0775 10.375 7.25 10.375H9.75C9.9225 10.375 10.0625 10.515 10.0625 10.6875C10.0625 10.86 9.9225 11 9.75 11Z" fill="#F9FAFB"/>
<path d="M20.6875 24.125C24.134 24.125 26.9375 21.3215 26.9375 17.875C26.9375 14.4285 24.134 11.625 20.6875 11.625C17.241 11.625 14.4375 14.4285 14.4375 17.875C14.4375 21.3215 17.241 24.125 20.6875 24.125ZM17.339 15.484C18.187 14.636 19.5665 14.636 20.4145 15.484L20.6875 15.757L20.9605 15.484C21.8085 14.636 23.188 14.636 24.036 15.484C24.4465 15.8945 24.673 16.441 24.673 17.0215C24.673 17.6025 24.447 18.1485 24.036 18.559L20.9085 21.6865C20.8475 21.7475 20.7675 21.778 20.6875 21.778C20.6075 21.778 20.5275 21.7475 20.4665 21.6865L17.339 18.559C16.491 17.7115 16.491 16.3315 17.339 15.484Z" fill="#F9FAFB"/>
<path d="M20.6875 24.75C18.021 24.75 15.7045 23.2245 14.5645 21H1.3125V24.6875C1.3125 26.445 2.7425 27.875 4.5 27.875H27.5C29.2575 27.875 30.6875 26.445 30.6875 24.6875V21H26.8105C25.6705 23.2245 23.354 24.75 20.6875 24.75ZM13.8125 17.875C13.8125 16.9935 13.9795 16.15 14.283 15.375H1.3125V20.375H14.283C13.9795 19.6 13.8125 18.7565 13.8125 17.875Z" fill="#F9FAFB"/>
</svg>
