<svg width="32" height="32" viewBox="0 0 32 32" fill="none" xmlns="http://www.w3.org/2000/svg">
<path d="M6.50102 3.00498C5.66102 3.00498 5.00102 3.66498 5.00102 4.50498V5.00498H8.00102V4.50498C8.00102 3.66498 7.34102 3.00498 6.50102 3.00498ZM8.48802 3.00398C8.80402 3.42198 9.00002 3.93698 9.00002 4.49998V5.41698C9.00924 5.47092 9.00924 5.52603 9.00002 5.57998V17.289L15.092 21.656C15.489 21.94 15.858 22.011 16.24 21.869C16.368 21.822 16.497 21.751 16.629 21.656L23 17.089L23.003 17.086L22.997 16.879V4.50098C22.997 3.66098 22.337 3.00098 21.497 3.00098H8.48502L8.48802 3.00398ZM11.448 4.99998C11.4647 4.99914 11.4814 4.99914 11.498 4.99998H13.49C13.6226 4.99998 13.7498 5.05266 13.8436 5.14642C13.9373 5.24019 13.99 5.36737 13.99 5.49998C13.99 5.63258 13.9373 5.75976 13.8436 5.85353C13.7498 5.9473 13.6226 5.99998 13.49 5.99998H11.498C11.3654 6.00661 11.2356 5.96029 11.1371 5.87121C11.0387 5.78213 10.9797 5.65758 10.973 5.52498C10.9664 5.39237 11.0127 5.26256 11.1018 5.1641C11.1909 5.06564 11.3154 5.00661 11.448 4.99998ZM13.432 6.99998C13.4487 6.99914 13.4654 6.99914 13.482 6.99998H20.482C20.6146 6.99998 20.7418 7.05266 20.8356 7.14642C20.9293 7.24019 20.982 7.36737 20.982 7.49998C20.982 7.63259 20.9293 7.75976 20.8356 7.85353C20.7418 7.9473 20.6146 7.99998 20.482 7.99998H13.482C13.3494 8.00661 13.2196 7.96029 13.1211 7.87121C13.0227 7.78213 12.9637 7.65759 12.957 7.52498C12.9504 7.39237 12.9967 7.26256 13.0858 7.1641C13.1749 7.06564 13.2994 7.00661 13.432 6.99998ZM11.432 8.99998C11.4487 8.99914 11.4654 8.99914 11.482 8.99998H20.482C20.6146 8.99998 20.7418 9.05265 20.8356 9.14642C20.9293 9.24019 20.982 9.36737 20.982 9.49998C20.982 9.63259 20.9293 9.75976 20.8356 9.85353C20.7418 9.9473 20.6146 9.99998 20.482 9.99998H11.482C11.3494 10.0066 11.2196 9.96029 11.1211 9.87121C11.0227 9.78213 10.9637 9.65758 10.957 9.52498C10.9504 9.39237 10.9967 9.26256 11.0858 9.1641C11.1749 9.06564 11.2994 9.00661 11.432 8.99998ZM13.924 11.086C14.669 11.086 15.416 11.377 15.986 11.939L15.988 11.937L15.99 11.935C16.5432 11.3931 17.2872 11.0904 18.0616 11.0923C18.8359 11.0941 19.5785 11.4004 20.129 11.945C20.401 12.2162 20.6168 12.5385 20.764 12.8932C20.9112 13.248 20.987 13.6284 20.987 14.0125C20.987 14.3966 20.9112 14.7769 20.764 15.1317C20.6168 15.4865 20.401 15.8087 20.129 16.08L19.784 16.425L19.757 16.452L16.314 19.379C16.2235 19.4562 16.1085 19.4986 15.9895 19.4986C15.8706 19.4986 15.7555 19.4562 15.665 19.379L12.22 16.452L12.19 16.425L11.847 16.081C11.5751 15.8097 11.3593 15.4875 11.212 15.1327C11.0648 14.7779 10.989 14.3976 10.989 14.0135C10.989 13.6294 11.0648 13.249 11.212 12.8942C11.3593 12.5395 11.5751 12.2172 11.847 11.946C12.417 11.376 13.174 11.086 13.924 11.086ZM14.166 11.955C13.613 11.955 13.058 12.165 12.635 12.587C12.434 12.7863 12.2744 13.0235 12.1655 13.2848C12.0566 13.5461 12.0006 13.8264 12.0006 14.1095C12.0006 14.3926 12.0566 14.6729 12.1655 14.9342C12.2744 15.1955 12.434 15.4327 12.635 15.632L12.941 15.937L16 18.537L19.059 15.937L19.364 15.631C19.5649 15.4317 19.7243 15.1946 19.8331 14.9334C19.942 14.6721 19.998 14.392 19.998 14.109C19.998 13.826 19.942 13.5458 19.8331 13.2846C19.7243 13.0234 19.5649 12.7863 19.364 12.587C18.9577 12.1822 18.4075 11.955 17.834 11.955C17.2605 11.955 16.7104 12.1822 16.304 12.587L15.999 12.891L15.694 12.586C15.2883 12.1809 14.7383 11.9536 14.165 11.954L14.166 11.955ZM13.971 12.888C14.031 12.8851 14.091 12.8945 14.1473 12.9155C14.2036 12.9365 14.255 12.9687 14.2985 13.0102C14.342 13.0516 14.3766 13.1015 14.4002 13.1567C14.4239 13.2119 14.4361 13.2714 14.4361 13.3315C14.4361 13.3916 14.4239 13.451 14.4002 13.5062C14.3766 13.5615 14.342 13.6113 14.2985 13.6528C14.255 13.6943 14.2036 13.7265 14.1473 13.7475C14.091 13.7685 14.031 13.7778 13.971 13.775C13.957 13.775 13.896 13.789 13.838 13.922C13.7804 14.0733 13.7804 14.2406 13.838 14.392C13.8614 14.4454 13.874 14.503 13.8752 14.5613C13.8763 14.6196 13.8659 14.6776 13.8447 14.7319C13.8234 14.7862 13.7917 14.8358 13.7512 14.8779C13.7108 14.9199 13.6625 14.9536 13.609 14.977C13.5556 15.0004 13.498 15.013 13.4397 15.0141C13.3814 15.0153 13.3234 15.0049 13.2691 14.9836C13.2148 14.9624 13.1652 14.9306 13.1231 14.8902C13.0811 14.8497 13.0474 14.8014 13.024 14.748C12.9425 14.5616 12.9004 14.3604 12.9004 14.157C12.9004 13.9536 12.9425 13.7523 13.024 13.566C13.189 13.188 13.539 12.888 13.971 12.888ZM8.00102 13.248C7.01502 13.956 6.19002 14.568 5.73102 14.943L8.00002 16.57V13.248H8.00102ZM24.001 13.281L24 16.372L26.137 14.842C25.4394 14.3015 24.7268 13.7806 24 13.28L24.001 13.281ZM26.875 15.541L17.213 22.471C16.8206 22.7582 16.3469 22.913 15.8605 22.913C15.3742 22.913 14.9005 22.7582 14.508 22.471L5.06002 15.694C5.02383 15.7915 5.00325 15.8941 4.99902 15.998V27.998C4.99902 28.561 5.43602 28.998 5.99902 28.998H25.999C26.562 28.998 26.999 28.561 26.999 27.998V16C26.9961 15.839 26.9542 15.6812 26.875 15.541ZM21.441 23.999C21.458 23.9978 21.475 23.9978 21.492 23.999H24.492C25.169 23.989 25.168 25.009 24.492 24.999H21.492C20.826 25.033 20.774 24.033 21.441 23.999ZM19.452 26.003C19.469 26.0018 19.486 26.0018 19.503 26.003H24.495C25.172 25.993 25.172 27.013 24.495 27.003H19.503C18.837 27.037 18.785 26.036 19.452 26.003Z" fill="#F9FAFB"/>
</svg>
