<svg width="282" height="83" viewBox="0 0 282 83" fill="none" xmlns="http://www.w3.org/2000/svg">
<path d="M0.928711 57.04C0.928711 52.9711 0.85113 49.5575 0.631592 46.5121H8.33027L8.69177 51.7397H8.90635C10.6478 48.9765 13.8451 45.7082 19.7974 45.7082C24.444 45.7082 28.0722 48.3327 29.5957 52.2481H29.7443C30.9839 50.2855 32.4332 48.8395 34.0987 47.8194C36.0581 46.4411 38.3112 45.7082 41.2197 45.7082C47.0927 45.7082 53.0401 49.7028 53.0401 61.0346V81.8643H44.3312V62.3353C44.3312 56.4573 42.3009 52.9711 38.024 52.9711C34.9686 52.9711 32.7138 55.1516 31.7763 57.6936C31.5584 58.5635 31.3388 59.6513 31.3388 60.6632V81.8643H22.625V61.3928C22.625 56.4573 20.6673 52.9711 16.5308 52.9711C13.1898 52.9711 10.9433 55.5841 10.1443 58.0485C9.78285 58.9267 9.62934 59.9402 9.62934 60.957V81.8643H0.928711V57.04Z" fill="#003A70"/>
<path d="M78.2665 64.591C71.9494 64.4425 65.9278 65.8175 65.9278 71.1937C65.9278 74.6733 68.1793 76.2761 71.0102 76.2761C74.5608 76.2761 77.1804 73.9536 77.971 71.4132C78.1906 70.7612 78.2665 70.0316 78.2665 69.4539V64.591ZM86.9754 73.3726C86.9754 76.5649 87.1223 79.6748 87.4887 81.8636H79.4286L78.8492 77.9416H78.623C76.4491 80.7015 72.7483 82.6592 68.1793 82.6592C61.0617 82.6592 57.072 77.5157 57.072 72.1329C57.072 63.2045 64.9787 58.7081 78.047 58.7791V58.198C78.047 55.8739 77.1011 52.0262 70.8649 52.0262C67.3771 52.0262 63.7423 53.1206 61.3522 54.6442L59.6074 48.8388C62.2204 47.236 66.7977 45.7075 72.3868 45.7075C83.712 45.7075 86.9754 52.9011 86.9754 60.5931V73.3726Z" fill="#003A70"/>
<path d="M93.1523 57.04C93.1523 52.9711 93.0714 49.5575 92.8601 46.5121H100.692L101.13 51.8107H101.345C102.868 49.0574 106.721 45.7082 112.595 45.7082C118.772 45.7082 125.159 49.7028 125.159 60.8827V81.8643H116.227V61.9028C116.227 56.8204 114.339 52.9711 109.477 52.9711C105.92 52.9711 103.457 55.5082 102.508 58.1971C102.224 58.9993 102.147 60.0904 102.147 61.0956V81.8643H93.1523V57.04Z" fill="#003A70"/>
<path d="M154.939 61.2435C154.939 60.5222 154.864 59.6506 154.722 58.9243C153.922 55.4398 151.094 52.6105 147.027 52.6105C141.293 52.6105 138.1 57.6946 138.1 64.2989C138.1 70.7596 141.293 75.4838 146.958 75.4838C150.582 75.4838 153.78 73.0127 154.648 69.165C154.864 68.3645 154.939 67.4863 154.939 66.5438V61.2435ZM163.865 32.3074V71.9167C163.865 75.5448 164.014 79.4685 164.156 81.8603H156.172L155.815 76.2761H155.667C153.562 80.1898 149.269 82.6592 144.122 82.6592C135.703 82.6592 129.023 75.4838 129.023 64.591C128.952 52.7542 136.359 45.7075 144.851 45.7075C149.711 45.7075 153.199 47.7428 154.793 50.3657H154.939V32.3074H163.865Z" fill="#003A70"/>
<path d="M170.177 46.5119H179.192V81.8608H170.177V46.5119Z" fill="#003A70"/>
<path d="M185.496 57.9102C185.496 53.12 185.423 49.7032 185.204 46.5141H192.973L193.26 53.2587H193.556C195.296 48.2506 199.436 46.5141 203.211 46.5141C204.081 46.5141 204.589 46.3639 205.315 46.5141V54.3564C204.589 54.2078 203.792 54.0626 202.697 54.0626C198.419 54.0626 195.515 56.8192 194.72 60.8105C194.574 61.6077 194.431 62.5585 194.431 63.5786V81.8613H185.496V57.9102Z" fill="#003A70"/>
<path d="M209.454 46.5119H218.45V81.8608H209.454V46.5119Z" fill="#003A70"/>
<path fill-rule="evenodd" clip-rule="evenodd" d="M273.995 9.1685C269.553 4.10922 264.839 6.39374 261.076 8.25899C259.499 9.0381 253.776 12.8478 248.105 15.5037C244.064 17.397 238.264 16.8243 235.083 12.8957C234.89 12.658 229.748 6.4284 229.203 5.66084C225.864 1.47312 217.417 -1.99987 207.325 3.77579C201.918 6.90544 189.175 14.2179 184.411 16.9382C181.515 18.4155 174.794 19.0609 170.997 13.9323C170.935 13.8481 165.946 7.62348 165.747 7.38413C165.6 7.21577 162.378 2.4371 155.196 2.2902C154.139 2.26378 148.864 2.23242 143.709 5.15904C136.873 9.06946 120.964 18.1646 120.964 18.1646C120.953 18.1646 120.953 18.1729 120.953 18.1729C114.413 21.9165 109.312 24.8234 109.312 24.8234L115.334 32.2249C118.153 35.7194 124.502 38.4281 130.012 35.2654C130.012 35.2654 150.364 23.4797 150.435 23.4467C159.24 18.6152 166.034 18.6152 170.535 20.4144C174.584 22.1196 178.104 26.3783 178.104 26.3783C178.104 26.3783 182.707 32.083 183.516 33.08C186.134 36.3021 190.464 35.0377 190.464 35.0377C190.464 35.0377 192.063 34.8528 194.493 33.4167C194.493 33.4167 214.202 21.9892 214.213 21.9859C220.476 18.3132 226.22 17.6281 229.15 17.8955C238.339 18.7324 241.197 25.1518 245.185 29.6284C247.53 32.2678 249.645 33.76 252.882 33.6841C255.013 33.6362 257.414 32.3504 257.769 32.1193L281.374 18.4931C281.374 18.4931 278.956 14.8484 273.995 9.1685Z" fill="#FFB700"/>
</svg>
