<svg width="210" height="63" viewBox="0 0 210 63" fill="none" xmlns="http://www.w3.org/2000/svg">
<path d="M79.0576 42.7361L71.908 23.2535C71.6399 22.4939 72.1985 21.7119 73.0028 21.7119H76.2201C77.4713 21.7119 78.5884 22.4939 78.9906 23.6781L85.1124 40.9264C85.0826 40.9562 85.0751 40.986 85.09 41.0158C85.1049 41.0456 85.1496 41.0604 85.2241 41.0604C85.2837 41.0604 85.3284 41.0456 85.3582 41.0158C85.4028 40.986 85.4028 40.9562 85.3582 40.9264L91.4353 23.6781C91.8375 22.4939 92.9546 21.7119 94.2281 21.7119H97.4231C98.2274 21.7119 98.7859 22.4939 98.5178 23.2535L91.2789 42.7361C90.698 44.2554 89.9011 45.4023 88.8882 46.1769C87.8903 46.9365 86.6689 47.3163 85.2241 47.3163C83.8091 47.3163 82.5728 46.9365 81.5153 46.1769C80.4577 45.4023 79.6385 44.2554 79.0576 42.7361Z" fill="#F9FAFB"/>
<path fill-rule="evenodd" clip-rule="evenodd" d="M113.956 47.271C111.394 47.271 109.108 46.6752 107.097 45.4836C105.072 44.292 103.463 42.7057 102.271 40.7247C101.08 38.7288 100.484 36.5243 100.484 34.1113C100.484 31.6834 101.08 29.4864 102.271 27.5203C103.463 25.5542 105.079 23.9828 107.12 22.8061C109.16 21.6294 111.439 21.041 113.956 21.041C116.518 21.041 118.805 21.6294 120.815 22.8061C122.826 23.9828 124.42 25.5616 125.597 27.5427C126.773 29.5386 127.362 31.7281 127.362 34.1113C127.362 36.5243 126.773 38.7288 125.597 40.7247C124.42 42.7057 122.819 44.292 120.793 45.4836C118.753 46.6752 116.474 47.271 113.956 47.271ZM113.956 41.1268C115.297 41.1268 116.481 40.814 117.509 40.1885C118.537 39.5629 119.356 38.7213 119.966 37.6638C120.562 36.6062 120.86 35.437 120.86 34.156C120.86 32.875 120.562 31.7058 119.966 30.6483C119.356 29.5907 118.537 28.7417 117.509 28.1012C116.481 27.4607 115.297 27.1405 113.956 27.1405C112.646 27.1405 111.469 27.4607 110.426 28.1012C109.384 28.7417 108.557 29.5907 107.946 30.6483C107.35 31.7058 107.053 32.875 107.053 34.156C107.053 35.437 107.35 36.6062 107.946 37.6638C108.557 38.7213 109.384 39.5629 110.426 40.1885C111.469 40.814 112.646 41.1268 113.956 41.1268Z" fill="#F9FAFB"/>
<path fill-rule="evenodd" clip-rule="evenodd" d="M144.074 47.271C141.512 47.271 139.226 46.6752 137.215 45.4836C135.189 44.292 133.581 42.7057 132.389 40.7247C131.197 38.7288 130.602 36.5243 130.602 34.1113C130.602 31.6834 131.197 29.4864 132.389 27.5203C133.581 25.5542 135.197 23.9828 137.237 22.8061C139.263 21.6294 141.542 21.041 144.074 21.041C146.621 21.041 148.907 21.6294 150.933 22.8061C152.944 23.9828 154.538 25.5616 155.714 27.5427C156.891 29.5386 157.479 31.7281 157.479 34.1113C157.479 36.5243 156.891 38.7288 155.714 40.7247C154.538 42.7057 152.937 44.292 150.911 45.4836C148.87 46.6752 146.591 47.271 144.074 47.271ZM144.074 41.1268C145.415 41.1268 146.599 40.814 147.626 40.1885C148.654 39.5629 149.466 38.7213 150.062 37.6638C150.672 36.6062 150.978 35.437 150.978 34.156C150.978 32.875 150.672 31.7058 150.062 30.6483C149.466 29.5907 148.654 28.7417 147.626 28.1012C146.599 27.4607 145.415 27.1405 144.074 27.1405C142.763 27.1405 141.587 27.4607 140.544 28.1012C139.501 28.7417 138.675 29.5907 138.064 30.6483C137.453 31.7058 137.148 32.875 137.148 34.156C137.148 35.437 137.453 36.6062 138.064 37.6638C138.675 38.7213 139.501 39.5629 140.544 40.1885C141.587 40.814 142.763 41.1268 144.074 41.1268Z" fill="#F9FAFB"/>
<path d="M170.17 47.3157C169.291 47.3157 168.427 47.137 167.578 46.7795C166.744 46.4071 166.014 45.8411 165.389 45.0815C164.763 44.3218 164.316 43.3685 164.048 42.2216L159.513 22.9401C159.356 22.2922 159.825 21.7113 160.473 21.7113H163.132C164.406 21.7113 165.523 22.5826 165.813 23.8338L169.701 41.0151C169.746 41.1194 169.79 41.1939 169.835 41.2386C169.88 41.2981 169.969 41.3279 170.103 41.3279C170.237 41.3279 170.326 41.2981 170.371 41.2386C170.401 41.1939 170.416 41.1343 170.416 41.0598L174.236 26.0904C174.683 24.4073 175.391 23.1487 176.359 22.3145C177.342 21.4655 178.571 21.041 180.045 21.041C181.52 21.041 182.734 21.4506 183.687 22.2698C184.626 23.104 185.311 24.3626 185.743 26.0457L189.541 41.0598C189.571 41.1641 189.6 41.246 189.63 41.3056C189.66 41.3503 189.742 41.3726 189.876 41.3726C190.01 41.3726 190.107 41.3503 190.166 41.3056C190.211 41.246 190.233 41.1492 190.233 41.0151L194.009 23.8562C194.277 22.605 195.395 21.7113 196.69 21.7113H199.282C199.908 21.7113 200.399 22.2922 200.243 22.9178L195.886 42.2216C195.648 43.3685 195.216 44.3218 194.59 45.0815C193.98 45.8411 193.25 46.4071 192.401 46.7795C191.567 47.137 190.71 47.3157 189.831 47.3157C188.416 47.3157 187.225 46.8986 186.257 46.0645C185.273 45.2304 184.566 43.9718 184.134 42.2887L180.291 26.9394C180.291 26.8798 180.269 26.8128 180.224 26.7383C180.179 26.6788 180.105 26.649 180.001 26.649C179.867 26.649 179.785 26.6788 179.755 26.7383C179.71 26.8128 179.688 26.8798 179.688 26.9394L175.867 42.2887C175.42 43.9718 174.713 45.2304 173.745 46.0645C172.762 46.8986 171.57 47.3157 170.17 47.3157Z" fill="#F9FAFB"/>
<path d="M61.206 18.9182C54.548 29.6873 46.6835 42.3554 41.2543 51.1136C38.8189 55.0459 33.0769 55.0459 30.6193 51.1136C23.9761 40.3893 17.333 29.6575 10.6899 18.9182C7.65129 14.0252 12.2985 7.97043 17.8394 9.64611C19.8726 10.2494 22.0621 10.8079 24.3634 11.2324C27.4467 11.8133 29.6809 14.5391 29.6809 17.6894V27.4083C29.6809 30.8044 32.3173 33.6865 35.7134 33.8206C39.2881 33.9323 42.215 31.0948 42.215 27.5424V17.6894C42.215 14.5391 44.4269 11.8133 47.5325 11.2324C49.8338 10.8079 52.0233 10.2494 54.0788 9.62378C59.5974 7.97044 64.2446 14.0252 61.206 18.9182Z" fill="url(#paint0_linear_2046_7760)"/>
<defs>
<linearGradient id="paint0_linear_2046_7760" x1="65.5405" y1="4.06052" x2="52.4255" y2="66.3735" gradientUnits="userSpaceOnUse">
<stop offset="0.115" stop-color="#00C1FF"/>
<stop offset="1" stop-color="#0061FF"/>
</linearGradient>
</defs>
</svg>
