<svg width="23" height="22" viewBox="0 0 23 22" fill="none" xmlns="http://www.w3.org/2000/svg">
<path d="M2.17057 16.8558V19.0802C2.17057 19.1701 2.20802 19.2525 2.28291 19.3274C2.35783 19.4023 2.44023 19.4398 2.53012 19.4398H20.5057C20.5956 19.4398 20.678 19.4023 20.7529 19.3274C20.8278 19.2525 20.8653 19.1701 20.8653 19.0802V16.8558H2.17057ZM2.53012 4.85708H5.76354C5.66617 4.68181 5.59352 4.49681 5.54557 4.30208C5.49763 4.10734 5.47366 3.90287 5.47366 3.68866C5.47366 2.87226 5.7564 2.18133 6.32187 1.61585C6.88735 1.05038 7.57828 0.767639 8.39468 0.767639C8.8845 0.767639 9.33759 0.89491 9.75396 1.14945C10.1703 1.40399 10.5336 1.72012 10.8438 2.09783L11.4955 2.96964L12.1471 2.09783C12.4452 1.70535 12.8061 1.38554 13.2297 1.13838C13.6534 0.891219 14.1097 0.767639 14.5986 0.767639C15.4134 0.767639 16.1035 1.05038 16.669 1.61585C17.2345 2.18133 17.5172 2.87226 17.5172 3.68866C17.5172 3.90287 17.4951 4.10734 17.4509 4.30208C17.4068 4.49681 17.3322 4.68181 17.2274 4.85708H20.5057C21.0959 4.85708 21.5955 5.06155 22.0044 5.4705C22.4134 5.87942 22.6179 6.37899 22.6179 6.9692V19.0802C22.6179 19.6704 22.4134 20.17 22.0044 20.579C21.5955 20.9879 21.0959 21.1924 20.5057 21.1924H2.53012C1.93991 21.1924 1.44034 20.9879 1.03139 20.579C0.622442 20.17 0.417969 19.6704 0.417969 19.0802V6.9692C0.417969 6.37899 0.622442 5.87942 1.03139 5.4705C1.44034 5.06155 1.93991 4.85708 2.53012 4.85708ZM2.17057 13.8449H20.8653V6.9692C20.8653 6.87931 20.8278 6.79692 20.7529 6.72202C20.678 6.6471 20.5956 6.60965 20.5057 6.60965H14.1198L15.9848 9.17345C16.1271 9.37866 16.1844 9.59474 16.1567 9.82169C16.129 10.0486 16.0125 10.2332 15.8073 10.3755C15.6021 10.5178 15.386 10.5721 15.1591 10.5385C14.9321 10.5047 14.7475 10.3913 14.6052 10.198L11.4955 5.97601L8.38568 10.198C8.24337 10.3913 8.05875 10.5047 7.83182 10.5385C7.60487 10.5721 7.38879 10.5178 7.18358 10.3755C6.97837 10.2332 6.85891 10.0486 6.8252 9.82169C6.79149 9.59474 6.84579 9.37866 6.9881 9.17345L8.83511 6.60965H2.53012C2.44023 6.60965 2.35783 6.6471 2.28291 6.72202C2.20802 6.79692 2.17057 6.87931 2.17057 6.9692V13.8449ZM8.39468 4.85708C8.72573 4.85708 9.00323 4.7451 9.22717 4.52116C9.45112 4.29721 9.5631 4.01971 9.5631 3.68866C9.5631 3.35761 9.45112 3.08011 9.22717 2.85616C9.00323 2.63221 8.72573 2.52024 8.39468 2.52024C8.06362 2.52024 7.78613 2.63221 7.56218 2.85616C7.33823 3.08011 7.22626 3.35761 7.22626 3.68866C7.22626 4.01971 7.33823 4.29721 7.56218 4.52116C7.78613 4.7451 8.06362 4.85708 8.39468 4.85708ZM14.5962 4.85708C14.9273 4.85708 15.2048 4.7451 15.4287 4.52116C15.6527 4.29721 15.7647 4.01971 15.7647 3.68866C15.7647 3.35761 15.6527 3.08011 15.4287 2.85616C15.2048 2.63221 14.9273 2.52024 14.5962 2.52024C14.2652 2.52024 13.9877 2.63221 13.7637 2.85616C13.5398 3.08011 13.4278 3.35761 13.4278 3.68866C13.4278 4.01971 13.5398 4.29721 13.7637 4.52116C13.9877 4.7451 14.2652 4.85708 14.5962 4.85708Z" fill="#111827"/>
</svg>
