<svg width="32" height="32" viewBox="0 0 32 32" fill="none" xmlns="http://www.w3.org/2000/svg">
<path d="M5.91553 4.125H21.8005C21.6415 3.61712 21.3243 3.17337 20.8953 2.85854C20.4662 2.54371 19.9477 2.37428 19.4155 2.375H3.41553C2.75282 2.37609 2.11757 2.63983 1.64896 3.10844C1.18036 3.57704 0.916617 4.2123 0.915527 4.875V24.375C0.916007 24.8612 1.05813 25.3367 1.32452 25.7434C1.59092 26.1501 1.97003 26.4703 2.41553 26.665V7.625C2.41654 6.69706 2.78562 5.80741 3.44177 5.15125C4.09793 4.49509 4.98758 4.12602 5.91553 4.125ZM23.1597 12.8467C22.9165 12.6028 22.7267 12.311 22.6025 11.9898L16.4419 18.1504C16.3489 18.2445 16.2967 18.3715 16.2967 18.5039C16.2967 18.6363 16.3489 18.7633 16.4419 18.8574L15.8184 19.481L14.8697 19.7974C14.7898 19.8238 14.718 19.8701 14.6609 19.9318C14.6038 19.9935 14.5632 20.0687 14.543 20.1504L13.836 22.979C13.815 23.0628 13.8161 23.1505 13.8391 23.2337C13.8622 23.317 13.9064 23.3928 13.9675 23.4538C14.0286 23.5148 14.1044 23.559 14.1877 23.582C14.2709 23.605 14.3587 23.606 14.4424 23.585L17.2705 22.8775C17.352 22.8571 17.4271 22.8165 17.4887 22.7594C17.5504 22.7023 17.5966 22.6305 17.6231 22.5508L17.9395 21.6021L18.5634 20.9784C18.6098 21.0249 18.6649 21.0618 18.7256 21.0869C18.7863 21.1121 18.8513 21.125 18.917 21.125C18.9826 21.125 19.0477 21.1121 19.1083 21.087C19.169 21.0618 19.2241 21.025 19.2705 20.9785L25.4307 14.8179C24.7418 14.6167 23.6811 13.3154 23.1597 12.8467Z" fill="#F9FAFB"/>
<path d="M24.4155 27.125V17.2472L19.9776 21.6855C19.8303 21.8356 19.6522 21.952 19.4556 22.0265C19.259 22.1011 19.0485 22.132 18.8387 22.1173L18.8135 22.1426L18.5718 22.8672C18.4927 23.1067 18.3541 23.3223 18.1691 23.4938C17.9841 23.6652 17.7586 23.787 17.5137 23.8477L14.6851 24.5552C14.4613 24.6105 14.2277 24.6132 14.0027 24.563C13.7776 24.5127 13.5674 24.411 13.3884 24.2657C13.3649 24.3495 13.3196 24.4257 13.2572 24.4864C13.1947 24.5472 13.1173 24.5902 13.0327 24.6113C12.4599 24.7564 11.8599 24.7552 11.2876 24.6079C10.6451 24.4149 10.0645 24.0568 9.60355 23.5693C9.30325 23.2896 9.11038 23.1235 8.93411 23.1245C8.79349 23.1294 8.40726 23.2583 7.86478 24.3481C7.83557 24.4071 7.79501 24.4597 7.74544 24.503C7.69587 24.5462 7.63825 24.5793 7.57588 24.6002C7.51351 24.6212 7.44763 24.6297 7.38199 24.6251C7.31635 24.6206 7.25225 24.6031 7.19337 24.5738C7.13448 24.5444 7.08196 24.5038 7.03882 24.4541C6.99567 24.4044 6.96275 24.3467 6.94194 24.2843C6.92112 24.2219 6.91282 24.156 6.91751 24.0904C6.9222 24.0247 6.93979 23.9607 6.96928 23.9019C7.55278 22.731 8.18461 22.1499 8.89994 22.1255C9.16767 22.1412 9.42918 22.2126 9.66772 22.3352C9.90626 22.4578 10.1166 22.6288 10.2852 22.8374C10.6284 23.2108 11.0631 23.4882 11.5464 23.6421C12.0037 23.7385 12.4763 23.7359 12.9326 23.6346C12.8182 23.3486 12.795 23.0341 12.8662 22.7344L13.5728 19.9077C13.6331 19.6622 13.755 19.4362 13.9268 19.2508C14.0987 19.0654 14.315 18.9268 14.5552 18.8481L15.2783 18.6069L15.3031 18.5822C15.2884 18.3724 15.3194 18.162 15.3939 17.9654C15.4685 17.7687 15.5848 17.5906 15.7349 17.4434L21.8955 11.2827C22.0425 11.1367 22.2313 11.04 22.4357 11.0062C22.4509 10.3694 22.7101 9.76273 23.1597 9.31153L24.4155 8.05569C24.4676 7.69491 24.4421 7.32718 24.3408 6.97702C24.2396 6.62685 24.0648 6.30229 23.8283 6.02496C23.5917 5.74764 23.2987 5.52394 22.9689 5.36875C22.6391 5.21356 22.28 5.13047 21.9155 5.125H5.91553C5.25282 5.12609 4.61757 5.38983 4.14896 5.85844C3.68036 6.32704 3.41662 6.96229 3.41553 7.625V27.125C3.41662 27.7877 3.68036 28.423 4.14896 28.8916C4.61757 29.3602 5.25282 29.6239 5.91553 29.625H21.9155C22.5785 29.6248 23.2142 29.3613 23.683 28.8925C24.1518 28.4237 24.4153 27.788 24.4155 27.125ZM11.1705 8.65C11.6685 8.57907 12.1763 8.63697 12.6454 8.81816C13.1146 8.99936 13.5295 9.2978 13.8505 9.685C13.87 9.69961 13.8937 9.7075 13.918 9.7075C13.9424 9.7075 13.9661 9.69961 13.9855 9.685C14.3058 9.29827 14.7198 9.00008 15.1881 8.81889C15.6564 8.63769 16.1634 8.57955 16.6605 8.65C17.3584 8.74175 17.9955 9.09453 18.4436 9.63728C18.8917 10.18 19.1175 10.8724 19.0755 11.575C18.9155 14.04 14.6355 16.32 14.1455 16.57C14.075 16.6058 13.9971 16.6244 13.918 16.6244C13.839 16.6244 13.761 16.6058 13.6905 16.57C13.2005 16.32 8.91553 14.04 8.75553 11.575C8.71447 10.8726 8.94062 10.1807 9.38856 9.63819C9.83651 9.09565 10.4731 8.74263 11.1705 8.65ZM7.91553 17.625H11.9155C12.047 17.6268 12.1724 17.6802 12.2648 17.7738C12.3571 17.8674 12.4089 17.9935 12.4089 18.125C12.4089 18.2565 12.3571 18.3826 12.2648 18.4762C12.1724 18.5698 12.047 18.6232 11.9155 18.625H7.91553C7.7842 18.6231 7.65892 18.5695 7.56674 18.476C7.47456 18.3824 7.42289 18.2563 7.42289 18.125C7.42289 17.9937 7.47456 17.8676 7.56674 17.774C7.65892 17.6805 7.7842 17.6269 7.91553 17.625ZM7.91553 19.625H12.9155C13.047 19.6268 13.1724 19.6802 13.2648 19.7738C13.3571 19.8674 13.4089 19.9935 13.4089 20.125C13.4089 20.2565 13.3571 20.3826 13.2648 20.4762C13.1724 20.5698 13.047 20.6232 12.9155 20.625H7.91553C7.7842 20.6231 7.65892 20.5695 7.56674 20.476C7.47456 20.3824 7.42289 20.2563 7.42289 20.125C7.42289 19.9937 7.47456 19.8676 7.56674 19.774C7.65892 19.6805 7.7842 19.6269 7.91553 19.625Z" fill="#F9FAFB"/>
<path d="M29.8772 11.0791L30.5842 10.3721C30.8652 10.0905 31.0229 9.70902 31.0229 9.31128C31.0229 8.91354 30.8652 8.53204 30.5842 8.25049L29.1702 6.83642C28.8844 6.56375 28.5046 6.41162 28.1096 6.41162C27.7146 6.41162 27.3348 6.56375 27.0491 6.83642L23.8669 10.0186C23.586 10.3 23.4282 10.6814 23.4282 11.0791C23.4282 11.4768 23.586 11.8582 23.8669 12.1397L25.281 13.5537C25.5625 13.8348 25.944 13.9926 26.3418 13.9926C26.7396 13.9926 27.1211 13.8348 27.4026 13.5537L29.1701 11.7861L29.8772 12.4932L26.3415 16.0288C26.2508 16.1232 26.2007 16.2494 26.202 16.3803C26.2033 16.5112 26.2559 16.6363 26.3485 16.7289C26.441 16.8215 26.5662 16.874 26.6971 16.8753C26.828 16.8766 26.9542 16.8265 27.0486 16.7358L30.9377 12.8467C30.9842 12.8003 31.021 12.7451 31.0461 12.6845C31.0713 12.6238 31.0842 12.5588 31.0842 12.4932C31.0842 12.4275 31.0713 12.3625 31.0461 12.3018C31.021 12.2412 30.9842 12.1861 30.9377 12.1396L29.8772 11.0791Z" fill="#F9FAFB"/>
</svg>
